<?xml version="1.0" encoding="utf-8"?>
<!-- Generator: Adobe Illustrator 25.2.0, SVG Export Plug-In . SVG Version: 6.00 Build 0)  -->
<svg version="1.1" id="Layer_1" xmlns="http://www.w3.org/2000/svg" xmlns:xlink="http://www.w3.org/1999/xlink" x="0px" y="0px"
	 viewBox="0 0 85 95" style="enable-background:new 0 0 85 95;" xml:space="preserve">
<style type="text/css">
	.st0{fill:#07F8FF;}
	.st1{fill:#003234;}
</style>
<path class="st0" d="M41.3,67.7c3,3.4,8.6,1.4,8.6-3.2c0.1-8.7-4.4-16.8-11.6-21.4c0.9-5.6,1.4-11.4,1.4-16.5C39.7,3.4,30.5,0,25,0
	c-4.9,0-13.3,2.8-14.6,21.5c-0.1,0.8,0.6,1.5,1.4,1.6c0.8,0,1.5-0.6,1.6-1.4C13.9,13.1,16.4,3,25,3c7.6,0,11.8,8.4,11.8,23.6
	C36.7,44.5,31,67,25,67c-3.2,0-5.9-7.2-6.1-7.5c-2.4-5.8-4.4-14.3-5.2-23.7c-0.1-0.8-0.8-1.4-1.6-1.3c-0.8,0.1-1.4,0.8-1.3,1.6
	c0.2,2.1,0.5,4.5,0.9,7C4.4,47.7-0.1,55.8,0,64.5c0,4.6,5.6,6.6,8.6,3.2c2.2-2.5,5-4.4,8.2-5.7c2.1,4.7,4.8,7.9,8.2,7.9
	c3.1,0,5.9-3.1,8.1-8C36.2,63.2,39.1,65.2,41.3,67.7z M6.4,65.7C5.2,67.1,3,66.3,3,64.5c-0.1-7.2,3.4-14,9.2-18.2
	c0.8,4.4,2,9,3.5,13C12.1,60.7,8.9,62.9,6.4,65.7L6.4,65.7z M47,64.5c0,1.9-2.2,2.6-3.5,1.2c-2.5-2.9-5.7-5.1-9.3-6.4
	c1.4-3.8,2.6-8.3,3.5-13C43.6,50.5,47.1,57.2,47,64.5z M10.3,29.2l0-0.8c0-0.8,0.6-1.5,1.4-1.6c0.8,0,1.5,0.6,1.6,1.4l0,0.8
	c0,0.8-0.6,1.5-1.4,1.6c0,0-0.1,0-0.1,0C11,30.6,10.3,30,10.3,29.2L10.3,29.2z M25,25.4c3.6,0,6.6-3,6.6-6.6s-2.9-6.6-6.6-6.6
	c-3.6,0-6.6,3-6.6,6.6S21.3,25.4,25,25.4z M25,15.1c2,0,3.6,1.6,3.6,3.7S27,22.4,25,22.4c-2,0-3.6-1.6-3.6-3.7S23,15.1,25,15.1z
	 M18.1,80.6c0,3.2,4.6,11.9,5.5,13.6c0.3,0.5,0.8,0.8,1.3,0.8s1-0.3,1.3-0.8c0.9-1.7,5.5-10.4,5.5-13.6c0-3.8-3.1-6.9-6.8-6.9
	C21.2,73.8,18.1,76.8,18.1,80.6L18.1,80.6z M28.9,80.6c0,1.5-2,5.9-3.9,9.7c-1.9-3.8-3.9-8.2-3.9-9.7c0-2.2,1.7-3.9,3.9-3.9
	C27.1,76.7,28.9,78.5,28.9,80.6z M68.9,46l12-6.9c2.6-1.5,4.1-4.2,4.1-7.2V18c0-3-1.6-5.7-4.1-7.2l-12-6.9c-2.6-1.5-5.7-1.5-8.3,0
	l-12,6.9c-2.6,1.5-4.1,4.2-4.1,7.2v13.9c0,3,1.6,5.7,4.1,7.2l12,6.9C63.2,47.5,66.3,47.5,68.9,46z"/>
<path class="st1" d="M60.1,21.1v7.6c0,1.5-1.9,2-2.7,0.8l-2.3-3.5v2.7c0,0.8-0.7,1.5-1.5,1.5s-1.5-0.7-1.5-1.5v-7.6
	c0-1.5,1.9-2,2.7-0.8l2.3,3.5v-2.7c0-0.8,0.7-1.5,1.5-1.5C59.4,19.7,60.1,20.3,60.1,21.1L60.1,21.1z M69,21.1c0-0.8,0.7-1.5,1.5-1.5
	h5.4c0.8,0,1.5,0.7,1.5,1.5s-0.7,1.5-1.5,1.5h-1.2v6.2c0,0.8-0.7,1.5-1.5,1.5s-1.5-0.7-1.5-1.5v-6.2h-1.2C69.7,22.6,69,22,69,21.1
	L69,21.1z M63,30.3c-0.8,0-1.5-0.7-1.5-1.5v-7.6c0-0.8,0.7-1.5,1.5-1.5h3.8c0.8,0,1.5,0.7,1.5,1.5s-0.7,1.5-1.5,1.5h-2.3v0.8h2.3
	c0.8,0,1.5,0.7,1.5,1.5c0,0.8-0.7,1.5-1.5,1.5h-2.3v2.3C64.5,29.6,63.9,30.3,63,30.3z"/>
</svg>
