<?xml version="1.0" encoding="utf-8"?>
<!-- Generator: Adobe Illustrator 25.2.0, SVG Export Plug-In . SVG Version: 6.00 Build 0)  -->
<svg version="1.1" id="Layer_1" xmlns="http://www.w3.org/2000/svg" xmlns:xlink="http://www.w3.org/1999/xlink" x="0px" y="0px"
	 viewBox="0 0 22 17" style="enable-background:new 0 0 22 17;" xml:space="preserve">
<path id="Shape" d="M0.8,2c0-1.1,0.9-2,2-2s2,0.9,2,2c0,1.1-0.9,2-2,2S0.8,3,0.8,2z M19.7,0.7C20.5,0.7,21,1.2,21,2
	c0,0.7-0.6,1.3-1.3,1.3H8C7.3,3.3,6.7,2.7,6.7,2c0-0.7,0.6-1.3,1.3-1.3H19.7z M19.7,7.2c0.7,0,1.3,0.6,1.3,1.3s-0.6,1.3-1.3,1.3H8
	c-0.7,0-1.3-0.6-1.3-1.3S7.3,7.2,8,7.2H19.7z M19.7,13.7c0.7,0,1.3,0.6,1.3,1.3s-0.6,1.3-1.3,1.3H8c-0.7,0-1.3-0.6-1.3-1.3
	s0.6-1.3,1.3-1.3H19.7z M0.8,15c0-1.1,0.9-2,2-2s2,0.9,2,2s-0.9,2-2,2S0.8,16.1,0.8,15z M4.7,8.5c0,1.1-0.9,2-2,2s-2-0.9-2-2
	s0.9-2,2-2S4.7,7.4,4.7,8.5z"/>
</svg>
