<?xml version="1.0" encoding="utf-8"?>
<!-- Generator: Adobe Illustrator 25.2.0, SVG Export Plug-In . SVG Version: 6.00 Build 0)  -->
<svg version="1.1" id="Layer_1" xmlns="http://www.w3.org/2000/svg" xmlns:xlink="http://www.w3.org/1999/xlink" x="0px" y="0px"
	 viewBox="0 0 17 17" style="enable-background:new 0 0 17 17;" xml:space="preserve">
<path d="M17,5.1c0-1.1-0.7-2-1.7-2.4V0.9c0-0.5-0.4-0.9-0.9-0.9s-0.9,0.4-0.9,0.9v1.9c-1,0.4-1.7,1.3-1.7,2.4c0,1.1,0.7,2,1.7,2.4
	v8.7c0,0.5,0.4,0.8,0.9,0.8s0.9-0.4,0.9-0.8V7.5C16.3,7.1,17,6.2,17,5.1z M11.1,11.1c0-1.1-0.7-2-1.7-2.4V0.9C9.4,0.4,9,0,8.5,0
	S7.6,0.4,7.6,0.9v7.8C6.7,9,5.9,10,5.9,11.1c0,1.1,0.7,2,1.7,2.4v2.7C7.6,16.6,8,17,8.5,17s0.9-0.4,0.9-0.9v-2.7
	C10.3,13.1,11.1,12.1,11.1,11.1z M5.1,5.1c0-1.1-0.7-2-1.7-2.4V0.8C3.4,0.4,3,0,2.6,0S1.7,0.4,1.7,0.8v1.9C0.7,3.1,0,4,0,5.1
	c0,1.1,0.7,2,1.7,2.4v8.7c0,0.5,0.4,0.9,0.9,0.9s0.8-0.4,0.8-0.9V7.5C4.4,7.1,5.1,6.2,5.1,5.1z"/>
</svg>
