<?xml version="1.0" encoding="utf-8"?>
<!-- Generator: Adobe Illustrator 25.2.0, SVG Export Plug-In . SVG Version: 6.00 Build 0)  -->
<svg version="1.1" id="Layer_1" xmlns="http://www.w3.org/2000/svg" xmlns:xlink="http://www.w3.org/1999/xlink" x="0px" y="0px"
	 viewBox="0 0 22 18" style="enable-background:new 0 0 22 18;" xml:space="preserve">
<path id="Shape" d="M0.2,9C1.1,3.9,5.6,0,11,0s9.9,3.9,10.8,9c-0.9,5.1-5.4,9-10.8,9S1.1,14.1,0.2,9z M11,14c2.8,0,5-2.2,5-5
	s-2.2-5-5-5S6,6.2,6,9S8.2,14,11,14L11,14z M11,12c-1.7,0-3-1.3-3-3s1.3-3,3-3s3,1.3,3,3S12.7,12,11,12z"/>
</svg>
