<?xml version="1.0" encoding="utf-8"?>
<!-- Generator: Adobe Illustrator 25.2.0, SVG Export Plug-In . SVG Version: 6.00 Build 0)  -->
<svg version="1.1" id="Layer_1" xmlns="http://www.w3.org/2000/svg" xmlns:xlink="http://www.w3.org/1999/xlink" x="0px" y="0px"
	 viewBox="0 0 18 15" style="enable-background:new 0 0 18 15;" xml:space="preserve">
<path id="Path" d="M16.1,3.7c0,0.2,0,0.3,0,0.5c0,5-3.7,10.8-10.5,10.8c-2.1,0-4-0.6-5.7-1.7c0.3,0,0.6,0,0.9,0
	c1.7,0,3.3-0.6,4.6-1.6c-1.6,0-3-1.1-3.4-2.6c0.2,0,0.5,0.1,0.7,0.1c0.3,0,0.7,0,1-0.1c-1.7-0.4-3-1.9-3-3.7v0
	c0.5,0.3,1.1,0.5,1.7,0.5c-1-0.7-1.6-1.8-1.6-3.2c0-0.7,0.2-1.3,0.5-1.9c1.8,2.3,4.5,3.8,7.6,4C8.8,4.4,8.8,4.1,8.8,3.8
	c0-2.1,1.6-3.8,3.7-3.8c1.1,0,2,0.5,2.7,1.2C16,1,16.8,0.7,17.5,0.3c-0.3,0.9-0.9,1.6-1.6,2.1c0.7-0.1,1.5-0.3,2.1-0.6
	C17.5,2.5,16.9,3.2,16.1,3.7z"/>
</svg>
