<?xml version="1.0" encoding="utf-8"?>
<!-- Generator: Adobe Illustrator 25.2.0, SVG Export Plug-In . SVG Version: 6.00 Build 0)  -->
<svg version="1.1" id="Layer_1" xmlns="http://www.w3.org/2000/svg" xmlns:xlink="http://www.w3.org/1999/xlink" x="0px" y="0px"
	 viewBox="0 0 21 16" style="enable-background:new 0 0 21 16;" xml:space="preserve">
<path id="Shape" d="M7.3,8c2.3,0,4.2-1.8,4.2-4S9.7,0,7.3,0S3.2,1.8,3.2,4S5,8,7.3,8z M9,9.5H5.7C2.5,9.5,0,11.9,0,14.9
	C0,15.5,0.5,16,1.1,16h12.4c0.6,0,1.1-0.5,1.1-1.1C14.7,11.9,12.2,9.5,9,9.5z M15.7,10h-2.4c1.5,1.2,2.5,2.9,2.5,4.9
	c0,0.4-0.1,0.8-0.3,1.1H20c0.6,0,1-0.4,1-1C21,12.2,18.7,10,15.7,10z M14.2,8c2,0,3.7-1.6,3.7-3.5S16.2,1,14.2,1
	c-0.8,0-1.6,0.3-2.2,0.7c0.4,0.7,0.6,1.5,0.6,2.3c0,1.1-0.4,2.1-1,3C12.2,7.6,13.2,8,14.2,8z"/>
</svg>
