<?xml version="1.0" encoding="utf-8"?>
<!-- Generator: Adobe Illustrator 25.2.0, SVG Export Plug-In . SVG Version: 6.00 Build 0)  -->
<svg version="1.1" id="Layer_1" xmlns="http://www.w3.org/2000/svg" xmlns:xlink="http://www.w3.org/1999/xlink" x="0px" y="0px"
	 viewBox="0 0 292 292" style="enable-background:new 0 0 292 292;" xml:space="preserve">
<style type="text/css">
	.st0{fill-rule:evenodd;clip-rule:evenodd;fill:url(#Fill-1_1_);}
	.st1{fill-rule:evenodd;clip-rule:evenodd;fill:#004B4F;}
	.st2{fill-rule:evenodd;clip-rule:evenodd;fill:#00A8AD;}
	.st3{fill-rule:evenodd;clip-rule:evenodd;fill:#003234;}
</style>
<linearGradient id="Fill-1_1_" gradientUnits="userSpaceOnUse" x1="-158.1082" y1="541.8331" x2="-158.1082" y2="540.8331" gradientTransform="matrix(232.871 -58.0613 -58.0613 -232.871 68395.2812 117026.7969)">
	<stop  offset="0" style="stop-color:#007F86"/>
	<stop  offset="1" style="stop-color:#002D2F"/>
</linearGradient>
<path id="Fill-1" class="st0" d="M16,87.7l217.3-54.2l-5.8-23.3L10.2,64.4L16,87.7z M281.8,227.6l-50.5,12.6l-1.9-7.8
	c-2.7-11-10.3-19.5-19.8-23.9l20.8-5.2c2.1-0.5,3.4-2.7,2.9-4.8l-7.7-31l11.6-2.9c2.1-0.5,3.4-2.7,2.9-4.8l-11.6-46.6
	c-0.5-2.1-2.7-3.4-4.8-2.9l-11.6,2.9l-4.8-19.4c-0.5-2.1-2.7-3.4-4.8-2.9l-62.1,15.5l-2.1-8.5c4.1-2.7,6.3-7.8,5-12.9
	c-1.6-6.4-8.1-10.3-14.5-8.7c-6.4,1.6-10.3,8.1-8.7,14.5c1.3,5.1,5.6,8.5,10.5,9l2.1,8.5l-62.1,15.5c-2.1,0.5-3.4,2.7-2.9,4.8
	l4.8,19.4l-11.6,2.9c-2.1,0.5-3.4,2.7-2.9,4.8l11.6,46.6c0.5,2.1,2.7,3.4,4.8,2.9l11.6-2.9l7.7,31c0.5,2.1,2.7,3.4,4.8,2.9l20.8-5.2
	c-6.3,8.4-9,19.4-6.2,30.4l1.9,7.8l-50.5,12.6L18,95.5l217.3-54.2L281.8,227.6z M223.6,159.6l7.8-1.9l-9.7-38.8l-7.8,1.9
	L223.6,159.6z M127.6,88.7c-0.5-2.1,0.8-4.3,2.9-4.8s4.3,0.8,4.8,2.9c0.5,2.1-0.8,4.3-2.9,4.8S128.1,90.9,127.6,88.7L127.6,88.7z
	 M100.4,227.5l124.2-31l-24.2-97l-124.2,31L100.4,227.5z M76.1,196.4l7.8-1.9l-9.7-38.8l-7.8,1.9L76.1,196.4z M122.6,267.3l-1.9-7.8
	c-3.7-15,5.4-30.2,20.4-33.9l46.6-11.6c15-3.7,30.2,5.4,33.9,20.4l1.9,7.8L122.6,267.3z M229.5,1.5L4.4,57.6
	c-2.1,0.5-3.4,2.7-2.9,4.8l56.1,225.1c0.5,2.1,2.7,3.4,4.8,2.9l225.1-56.1c2.1-0.5,3.4-2.7,2.9-4.8L234.4,4.4
	C233.8,2.3,231.7,1,229.5,1.5L229.5,1.5z"/>
<polygon id="Fill-6" class="st1" points="107.3,56.7 223.7,27.7 221.8,19.9 105.3,49 "/>
<path class="st2" d="M21.9,78l7.8-1.9l-1.9-7.8l-7.8,1.9L21.9,78z M37.4,74.1l7.8-1.9l-1.9-7.8l-7.8,1.9L37.4,74.1z M52.9,70.3
	l7.8-1.9l-1.9-7.8L51,62.5L52.9,70.3z M133.3,172.7l4.1-6.9l-13.5-8.1l8.1-13.5l-6.9-4.1l-8.1,13.5l-13.5-8.1l-4.1,6.9l13.5,8.1
	l-8.1,13.5l6.9,4.1l8.1-13.5L133.3,172.7z M169.8,163.6l8.1-13.5l13.5,8.1l4.1-6.9l-13.5-8.1l8.1-13.5l-6.9-4.1l-8.1,13.5l-13.5-8.1
	l-4.1,6.9l13.5,8.1l-8.1,13.5L169.8,163.6z"/>
<path id="Fill-9" class="st3" d="M154.7,180.9c9.4-2.3,18.9,2.4,22.9,10.8l-38,9.5C139.2,191.9,145.3,183.3,154.7,180.9L154.7,180.9
	z M183.8,198.4c2.1-0.5,3.4-2.7,2.9-4.8c-3.7-15-19-24.1-33.9-20.4c-15,3.7-24.1,19-20.4,33.9c0.5,2.1,2.7,3.4,4.8,2.9L183.8,198.4z
	"/>
</svg>
