<?xml version="1.0" encoding="utf-8"?>
<!-- Generator: Adobe Illustrator 25.2.0, SVG Export Plug-In . SVG Version: 6.00 Build 0)  -->
<svg version="1.1" id="Layer_1" xmlns="http://www.w3.org/2000/svg" xmlns:xlink="http://www.w3.org/1999/xlink" x="0px" y="0px"
	 viewBox="0 0 17 17" style="enable-background:new 0 0 17 17;" xml:space="preserve">
<path id="Shape" d="M17,5.5c0.1,0.3,0,0.6-0.2,0.8l-1.5,1.3c0,0.3,0.1,0.6,0.1,0.8s0,0.6-0.1,0.8l1.5,1.3c0.2,0.2,0.3,0.5,0.2,0.8
	c-0.2,0.4-0.3,0.8-0.6,1.1l-0.2,0.3c-0.2,0.4-0.5,0.7-0.8,1c-0.2,0.2-0.6,0.3-0.9,0.2l-2-0.6c-0.5,0.3-1,0.6-1.6,0.8l-0.4,1.9
	c-0.1,0.3-0.3,0.5-0.6,0.6C9.5,17,9,17,8.5,17c-0.5,0-1,0-1.5-0.1c-0.3-0.1-0.6-0.3-0.6-0.6l-0.4-1.9c-0.6-0.2-1.1-0.5-1.5-0.8
	l-2,0.6c-0.3,0.1-0.7,0-0.9-0.2c-0.3-0.3-0.5-0.7-0.8-1l-0.2-0.3c-0.2-0.4-0.4-0.7-0.6-1.1c-0.1-0.3,0-0.6,0.2-0.8l1.5-1.3
	c0-0.3-0.1-0.6-0.1-0.8s0-0.6,0.1-0.8L0.3,6.3C0,6.1-0.1,5.8,0,5.5c0.2-0.4,0.3-0.8,0.6-1.1l0.2-0.3c0.2-0.4,0.5-0.7,0.8-1
	c0.2-0.2,0.6-0.3,0.9-0.2l2,0.6c0.5-0.3,1-0.6,1.5-0.8l0.4-1.9C6.4,0.4,6.7,0.2,7,0.1C7.5,0,8,0,8.5,0s1,0,1.5,0.1
	c0.3,0.1,0.6,0.3,0.6,0.6l0.4,1.9c0.5,0.2,1.1,0.5,1.6,0.8l2-0.6c0.3-0.1,0.7,0,0.9,0.2c0.3,0.3,0.5,0.7,0.8,1l0.2,0.3
	C16.6,4.8,16.8,5.1,17,5.5L17,5.5z M8.5,11.2c1.6,0,2.8-1.2,2.8-2.7c0-1.4-1.3-2.7-2.8-2.7C6.9,5.8,5.7,7,5.7,8.5
	C5.7,10,6.9,11.2,8.5,11.2z"/>
</svg>
