<?xml version="1.0" encoding="utf-8"?>
<!-- Generator: Adobe Illustrator 25.2.0, SVG Export Plug-In . SVG Version: 6.00 Build 0)  -->
<svg version="1.1" id="Layer_1" xmlns="http://www.w3.org/2000/svg" xmlns:xlink="http://www.w3.org/1999/xlink" x="0px" y="0px"
	 viewBox="0 0 14 14" style="enable-background:new 0 0 14 14;" xml:space="preserve">
<path id="Shape" d="M6,4.5C6,5.3,5.3,6,4.5,6h-3C0.7,6,0,5.3,0,4.5v-3C0,0.7,0.7,0,1.5,0h3C5.3,0,6,0.7,6,1.5V4.5z M6,12.5
	C6,13.3,5.3,14,4.5,14h-3C0.7,14,0,13.3,0,12.5v-3C0,8.7,0.7,8,1.5,8h3C5.3,8,6,8.7,6,9.5V12.5z M8,1.5C8,0.7,8.7,0,9.5,0h3
	C13.3,0,14,0.7,14,1.5v3C14,5.3,13.3,6,12.5,6h-3C8.7,6,8,5.3,8,4.5V1.5z M14,12.5c0,0.8-0.7,1.5-1.5,1.5h-3C8.7,14,8,13.3,8,12.5
	v-3C8,8.7,8.7,8,9.5,8h3C13.3,8,14,8.7,14,9.5V12.5z"/>
</svg>
