<?xml version="1.0" encoding="utf-8"?>
<!-- Generator: Adobe Illustrator 25.2.0, SVG Export Plug-In . SVG Version: 6.00 Build 0)  -->
<svg version="1.1" id="Layer_1" xmlns="http://www.w3.org/2000/svg" xmlns:xlink="http://www.w3.org/1999/xlink" x="0px" y="0px"
	 viewBox="0 0 20 17" style="enable-background:new 0 0 20 17;" xml:space="preserve">
<path id="Shape" d="M9.5,1.6L10,2.1l0.5-0.5c1.3-1.3,3.1-1.8,4.9-1.5C18,0.5,20,2.8,20,5.6v0.2c0,1.6-0.7,3.2-1.9,4.3l-7.1,6.5
	C10.8,16.8,10.4,17,10,17s-0.8-0.2-1.1-0.4L1.9,10C0.7,8.9,0,7.4,0,5.8V5.6c0-2.7,2-5,4.7-5.5C6.4-0.2,8.3,0.4,9.5,1.6
	C9.5,1.6,9.5,1.6,9.5,1.6L9.5,1.6z M10,4.7L8.2,2.9C7.4,2.1,6.2,1.7,5,1.9C3.2,2.2,1.9,3.7,1.9,5.6v0.2c0,1.1,0.5,2.1,1.3,2.9L10,15
	l6.9-6.4c0.8-0.7,1.3-1.8,1.3-2.9V5.6c0-1.8-1.3-3.3-3.1-3.6c-1.2-0.2-2.4,0.2-3.2,1L10,4.7z"/>
</svg>
