<?xml version="1.0" encoding="utf-8"?>
<!-- Generator: Adobe Illustrator 25.2.0, SVG Export Plug-In . SVG Version: 6.00 Build 0)  -->
<svg version="1.1" id="Layer_1" xmlns="http://www.w3.org/2000/svg" xmlns:xlink="http://www.w3.org/1999/xlink" x="0px" y="0px"
	 viewBox="0 0 9 10" style="enable-background:new 0 0 9 10;" xml:space="preserve">
<path id="Shape" d="M1.6,3.8V2.8C1.6,1.3,2.9,0,4.5,0s2.9,1.3,2.9,2.8v0.9h0.3C8.4,3.8,9,4.3,9,5v3.8C9,9.4,8.4,10,7.7,10H1.3
	C0.6,10,0,9.4,0,8.8V5c0-0.7,0.6-1.2,1.3-1.2H1.6z M2.9,3.8h3.2V2.8c0-0.9-0.7-1.6-1.6-1.6S2.9,1.9,2.9,2.8V3.8z"/>
</svg>
