<?xml version="1.0" encoding="utf-8"?>
<!-- Generator: Adobe Illustrator 25.2.0, SVG Export Plug-In . SVG Version: 6.00 Build 0)  -->
<svg version="1.1" id="Layer_1" xmlns="http://www.w3.org/2000/svg" xmlns:xlink="http://www.w3.org/1999/xlink" x="0px" y="0px"
	 viewBox="0 0 16 16" style="enable-background:new 0 0 16 16;" xml:space="preserve">
<path id="Shape-Copy" d="M15.8,14.4l-3.6-3.6c0.9-1.2,1.3-2.6,1.3-4c0-3.7-3-6.7-6.7-6.7C3,0,0,3,0,6.7s3,6.7,6.7,6.7
	c1.5,0,2.9-0.5,4-1.3l3.6,3.6c0.4,0.3,1,0.3,1.3,0C16.1,15.4,16.1,14.8,15.8,14.4z M1.9,6.7c0-2.7,2.2-4.8,4.8-4.8
	c2.7,0,4.8,2.2,4.8,4.8s-2.2,4.8-4.8,4.8C4.1,11.5,1.9,9.4,1.9,6.7z"/>
</svg>
