<?xml version="1.0" encoding="utf-8"?>
<!-- Generator: Adobe Illustrator 25.2.0, SVG Export Plug-In . SVG Version: 6.00 Build 0)  -->
<svg version="1.1" id="Layer_1" xmlns="http://www.w3.org/2000/svg" xmlns:xlink="http://www.w3.org/1999/xlink" x="0px" y="0px"
	 viewBox="0 0 16 16" style="enable-background:new 0 0 16 16;" xml:space="preserve">
<path id="Shape" d="M8,3.9C5.7,3.9,3.9,5.7,3.9,8s1.8,4.1,4.1,4.1s4.1-1.8,4.1-4.1S10.3,3.9,8,3.9z M8,10.7c-1.5,0-2.7-1.2-2.7-2.7
	S6.5,5.3,8,5.3s2.7,1.2,2.7,2.7S9.5,10.7,8,10.7L8,10.7z M13.2,3.7c0,0.5-0.4,1-1,1c-0.5,0-1-0.4-1-1s0.4-1,1-1
	C12.8,2.8,13.2,3.2,13.2,3.7z M15.9,4.7c-0.1-1.3-0.4-2.4-1.3-3.4c-0.9-0.9-2.1-1.2-3.4-1.3C10,0,6,0,4.7,0.1
	C3.4,0.1,2.3,0.4,1.3,1.3C0.4,2.3,0.1,3.4,0.1,4.7C0,6,0,10,0.1,11.3c0.1,1.3,0.4,2.4,1.3,3.4c0.9,0.9,2.1,1.2,3.4,1.3
	C6,16,10,16,11.3,15.9c1.3-0.1,2.4-0.4,3.4-1.3c0.9-0.9,1.2-2.1,1.3-3.4C16,10,16,6,15.9,4.7z M14.2,12.7c-0.3,0.7-0.8,1.2-1.5,1.5
	c-1.1,0.4-3.6,0.3-4.7,0.3c-1.2,0-3.7,0.1-4.7-0.3C2.6,14,2,13.4,1.8,12.7C1.3,11.7,1.4,9.2,1.4,8S1.4,4.3,1.8,3.3
	C2,2.6,2.6,2,3.3,1.8C4.3,1.3,6.8,1.4,8,1.4c1.2,0,3.7-0.1,4.7,0.3C13.4,2,14,2.6,14.2,3.3c0.4,1.1,0.3,3.6,0.3,4.7
	S14.7,11.7,14.2,12.7z"/>
</svg>
