<?xml version="1.0" encoding="utf-8"?>
<!-- Generator: Adobe Illustrator 25.2.0, SVG Export Plug-In . SVG Version: 6.00 Build 0)  -->
<svg version="1.1" id="Layer_1" xmlns="http://www.w3.org/2000/svg" xmlns:xlink="http://www.w3.org/1999/xlink" x="0px" y="0px"
	 viewBox="0 0 84 79" style="enable-background:new 0 0 84 79;" xml:space="preserve">
<style type="text/css">
	.st0{fill:#07F8FF;}
	.st1{fill:#003234;}
</style>
<path id="Shape" class="st0" d="M75.2,33.9v0.7c0,0.7-0.6,1.3-1.3,1.3c-0.7,0-1.3-0.6-1.3-1.3v-0.7c0-0.7,0.6-1.3,1.3-1.3
	C74.7,32.6,75.2,33.2,75.2,33.9z M53.2,38.7c-4.7,15.2-26.4,15.1-31.1,0c-2.8,0.2-5.1-2-5.1-4.7s2.4-4.9,5.1-4.7
	c1.7-5.5,6.3-9.6,11.8-10.9c-0.4-0.6-0.6-1.3-0.6-2.1c0-0.7,0.6-1.3,1.3-1.3s1.3,0.6,1.3,1.3c0,0.4,0.2,0.7,0.4,1
	c0-0.7,0.6-1.2,1.3-1.2s1.3,0.6,1.3,1.2c0.2-0.3,0.4-0.6,0.4-1c0-0.7,0.6-1.3,1.3-1.3s1.3,0.6,1.3,1.3c0,0.8-0.2,1.5-0.6,2.1
	c5.5,1.3,10.1,5.5,11.8,10.9c2.8-0.2,5.1,2,5.1,4.7C58.3,36.7,55.9,38.9,53.2,38.7z M37.6,47.4C37.6,47.4,37.6,47.4,37.6,47.4
	c3.3,0,5.5-3.2,4.5-6.2c-0.1-0.4-0.1-0.8,0.1-1.1c0.2-0.3,0.6-0.6,1-0.6c2.5-0.2,4.4-2.2,4.4-4.7c0-2.6-2.1-4.7-4.7-4.7
	c-1.7,0-3.3,0.9-4.1,2.4c-0.5,0.8-1.8,0.8-2.3,0c-0.8-1.5-2.4-2.4-4.1-2.4c-2.6,0-4.7,2.1-4.7,4.7c0,2.4,1.9,4.5,4.4,4.7
	c0.4,0,0.8,0.2,1,0.6c0.2,0.3,0.3,0.8,0.1,1.1C32.1,44.3,34.4,47.4,37.6,47.4L37.6,47.4z M39.1,45.3c0.7,0,1.3-0.6,1.3-1.3
	s-0.6-1.3-1.3-1.3h-3c-0.7,0-1.3,0.6-1.3,1.3s0.6,1.3,1.3,1.3H39.1z M32.6,32.9c-1.3,0-2.4,1-2.4,2.3c0,0.7,0.6,1.3,1.3,1.3
	c0.4,0,0.8-0.2,1-0.5c0.2,0.3,0.6,0.5,1,0.5c0.7,0,1.3-0.6,1.3-1.3C34.9,34,33.9,32.9,32.6,32.9L32.6,32.9z M41.6,36.6
	c0.4,0,0.8-0.2,1-0.5c0.2,0.3,0.6,0.5,1,0.5c0.7,0,1.3-0.6,1.3-1.3c0-1.3-1.1-2.3-2.4-2.3c-1.3,0-2.4,1-2.4,2.3
	C40.3,36,40.9,36.6,41.6,36.6z M84,63.2C84,71.9,76.8,79,68,79c-8.2,0-15-6.2-15.9-14.1h-45c-4,0-7.2-3.2-7.2-7.1V7.1
	C0,3.2,3.2,0,7.2,0h60.9c4,0,7.2,3.2,7.2,7.1V28c0,0.7-0.6,1.3-1.3,1.3c-0.7,0-1.3-0.6-1.3-1.3V7.1c0-2.5-2-4.5-4.5-4.5H7.2
	c-2.5,0-4.6,2-4.6,4.5v50.7c0,2.5,2,4.5,4.6,4.5h44.9c0.1-2,0.6-3.8,1.3-5.5H9.5c-0.7,0-1.3-0.6-1.3-1.3V9.4c0-0.7,0.6-1.3,1.3-1.3
	h56.2c0.7,0,1.3,0.6,1.3,1.3v38.1c0.3,0,0.7-0.1,1-0.1c1.6,0,3.1,0.2,4.6,0.7v-7.6c0-0.7,0.6-1.3,1.3-1.3c0.7,0,1.3,0.6,1.3,1.3v8.6
	C80.4,51.8,84,57.1,84,63.2z M54.9,54.2c2.2-3.1,5.6-5.4,9.5-6.3V10.7H10.8v43.5H54.9z"/>
<path id="Path" class="st1" d="M71,59.4l-5,5l-1-1c-0.5-0.5-1.3-0.5-1.9,0c-0.5,0.5-0.5,1.3,0,1.8l1.9,1.9c0.2,0.2,0.6,0.4,0.9,0.4
	s0.7-0.1,0.9-0.4l6-5.9c0.5-0.5,0.5-1.3,0-1.8C72.4,58.8,71.6,58.8,71,59.4z"/>
</svg>
