<?xml version="1.0" encoding="utf-8"?>
<!-- Generator: Adobe Illustrator 25.2.0, SVG Export Plug-In . SVG Version: 6.00 Build 0)  -->
<svg version="1.1" id="Layer_1" xmlns="http://www.w3.org/2000/svg" xmlns:xlink="http://www.w3.org/1999/xlink" x="0px" y="0px"
	 viewBox="0 0 16 17" style="enable-background:new 0 0 16 17;" xml:space="preserve">
<path id="Path" d="M5.3,10.7c-1.2,1.2-3.2,1.2-4.4,0c-1.2-1.2-1.2-3.2,0-4.4c1.2-1.2,3.2-1.2,4.4,0l4.5-2.5c-0.3-1.5,0.5-3,2-3.6
	s3.1,0.1,3.8,1.4c0.7,1.4,0.4,3.1-0.9,4s-3,0.8-4.1-0.3L6.2,7.8c0.1,0.4,0.1,0.9,0,1.3l4.5,2.5c1.1-1.1,2.8-1.2,4.1-0.3
	s1.6,2.6,0.9,4s-2.4,2-3.8,1.4s-2.3-2.1-2-3.6L5.3,10.7z"/>
</svg>
