<?xml version="1.0" encoding="utf-8"?>
<!-- Generator: Adobe Illustrator 25.2.0, SVG Export Plug-In . SVG Version: 6.00 Build 0)  -->
<svg version="1.1" id="Layer_1" xmlns="http://www.w3.org/2000/svg" xmlns:xlink="http://www.w3.org/1999/xlink" x="0px" y="0px"
	 viewBox="0 0 34 29" style="enable-background:new 0 0 34 29;" xml:space="preserve">
<style type="text/css">
	.st0{fill:#00A8AD;}
</style>
<path class="st0" d="M28.9,10.5C28.1,4.5,23,0,17,0S5.9,4.5,5.1,10.5c-2.9,1.8-4.6,4.9-4.6,8.3c0,5.1,4,9.3,9,9.8l15,0
	c4.2-0.3,7.7-3.3,8.7-7.4C34.2,17,32.5,12.7,28.9,10.5z M30.3,20.4c-0.7,2.8-3.1,4.9-6,5.1l-0.3,0H10l-0.3,0c-2.9-0.2-5.3-2.3-6-5.1
	c-0.7-2.8,0.5-5.8,3-7.3l1.2-0.8l0.2-1.4C8.7,6.4,12.5,3,17,3c4.5,0,8.3,3.3,8.9,7.8l0.2,1.4l1.2,0.8C29.8,14.6,31,17.5,30.3,20.4z
	 M23,15l-6,7.5L11,15h4.5V9h3v6H23z"/>
</svg>
