<?xml version="1.0" encoding="UTF-8"?>
<svg width="12px" height="12px" viewBox="0 0 16 16" version="1.1" xmlns="http://www.w3.org/2000/svg" xmlns:xlink="http://www.w3.org/1999/xlink">
    <title>Icons/icon-trash</title>
    <g id="Desktop" stroke="none" stroke-width="1" fill="none" fill-rule="evenodd">
        <g id="Dili-Desktop-Gestion-Enchère" transform="translate(-988.000000, -650.000000)">
            <g id="Form" transform="translate(360.000000, 318.000000)">
                <g id="Table" transform="translate(24.000000, 289.000000)">
                    <g id="Row-Odd" transform="translate(0.000000, 31.000000)">
                        <g id="Tools" transform="translate(560.000000, 12.000000)">
                            <g id="Icons/icon-trash" transform="translate(44.000000, 0.000000)">
                                <polygon id="Path" points="0 0 16 0 16 16 0 16"></polygon>
                                <path d="M4.66666667,2.66666667 L4.66666667,1.33333333 L11.3333333,1.33333333 L11.3333333,2.66666667 L14.6666667,2.66666667 L14.6666667,4 L13.3333333,4 L13.3333333,14 C13.3333333,14.3681898 13.0348565,14.6666667 12.6666667,14.6666667 L3.33333333,14.6666667 C2.9651435,14.6666667 2.66666667,14.3681898 2.66666667,14 L2.66666667,4 L1.33333333,4 L1.33333333,2.66666667 L4.66666667,2.66666667 Z M4,4 L4,13.3333333 L12,13.3333333 L12,4 L4,4 Z M6,6 L7.33333333,6 L7.33333333,11.3333333 L6,11.3333333 L6,6 Z M8.66666667,6 L10,6 L10,11.3333333 L8.66666667,11.3333333 L8.66666667,6 Z" id="Shape" fill="#CB0000" fill-rule="nonzero"></path>
                            </g>
                        </g>
                    </g>
                </g>
            </g>
        </g>
    </g>
</svg>