<?xml version="1.0" encoding="UTF-8"?>
<svg width="24px" height="24px" viewBox="0 0 24 24" version="1.1" xmlns="http://www.w3.org/2000/svg" xmlns:xlink="http://www.w3.org/1999/xlink">
    <title>Icons/icon-calendar</title>
    <g id="Symbols" stroke="none" stroke-width="1" fill="none" fill-rule="evenodd">
        <g id="Components/Forms/Calendar" transform="translate(-269.000000, -36.000000)">
            <g id="Icons/icon-calendar" transform="translate(269.000000, 36.000000)">
                <polygon id="Path" points="0 0 24 0 24 24 0 24"></polygon>
                <path d="M17,3 L21,3 C21.5522847,3 22,3.44771525 22,4 L22,20 C22,20.5522847 21.5522847,21 21,21 L3,21 C2.44771525,21 2,20.5522847 2,20 L2,4 C2,3.44771525 2.44771525,3 3,3 L7,3 L7,1 L9,1 L9,3 L15,3 L15,1 L17,1 L17,3 Z M4,9 L4,19 L20,19 L20,9 L4,9 Z M6,11 L8,11 L8,13 L6,13 L6,11 Z M11,11 L13,11 L13,13 L11,13 L11,11 Z M16,11 L18,11 L18,13 L16,13 L16,11 Z" id="Shape" fill="#0D616C" fill-rule="nonzero"></path>
            </g>
        </g>
    </g>
</svg>