<?xml version="1.0" encoding="UTF-8"?>
<svg width="51px" height="63px" viewBox="0 0 51 63" version="1.1" xmlns="http://www.w3.org/2000/svg" xmlns:xlink="http://www.w3.org/1999/xlink">
    <title>Logo-Dark Copy 2</title>
    <g id="Admin" stroke="none" stroke-width="1" fill="none" fill-rule="evenodd">
        <g id="WowStreet-Add-User" transform="translate(-210.000000, -23.000000)">
            <g id="Logo-Dark-Copy-2" transform="translate(210.000000, 24.000000)">
                <path d="M19.2412545,36.1587534 L19.2412545,2.74915653 L24.002495,-3.74859303e-13 L24.002495,33.4203084 L48.0723773,47.3945316 C40.0758932,52.0374495 32.0794091,56.6803674 24.0827076,61.3230667 C16.0523125,56.6606931 8.02604756,51.9911056 0,47.3206437 L0,13.9204468 L4.9140575,11.0676722 L4.9140575,44.487762 C11.3595463,48.2302525 17.8052524,51.9720871 24.2507412,55.7147961 L29.0919769,52.9037748 C22.6464881,49.1617216 16.1986082,45.4227288 9.75529322,41.6765221 L9.75529322,8.25686952 L14.4791446,5.51383389 L14.4791446,38.9299889 C20.9252855,42.6748839 27.372948,46.4158441 33.8199584,50.159209 L38.5875029,47.391034 C32.1383187,43.6467947 25.690004,39.9021182 19.2412545,36.1587534" id="Fill-1" fill="#F8FAFB"></path>
                <path d="M19.2412545,2.74915653 L19.2412545,36.1587534 C25.690004,39.9021182 32.1383187,43.6467947 38.5875029,47.391034 L38.5875029,47.391034 L33.8199584,50.159209 C27.372948,46.4158441 20.9252855,42.6748839 14.4791446,38.9299889 L14.4791446,38.9299889 L14.4791446,5.51383389 L9.75529322,8.25686952 L9.75529322,41.6765221 C16.1986082,45.4227288 22.6464881,49.1617216 29.0919769,52.9037748 L29.0919769,52.9037748 L24.2507412,55.7147961 C17.8052524,51.9720871 11.3595463,48.2302525 4.9140575,44.487762 L4.9140575,44.487762 L4.9140575,11.0676722 L0,13.9204468 L0,47.3206437 C8.02604756,51.9911056 16.0523125,56.6606931 24.0827076,61.3230667 L24.0827076,61.3230667 C32.0794091,56.6803674 40.0758932,52.0374495 48.0723773,47.3945316 L48.0723773,47.3945316 L24.002495,33.4203084 L24.002495,-3.74859303e-13 L19.2412545,2.74915653 Z" id="Clip-4" fill="#002325"></path>
                <path d="M28.1852913,31.1850885 L28.1852913,22.1204794 L32.936315,24.8785987 L32.936315,29.4113404 C37.4486571,32.0308651 41.9609992,34.6512642 46.4737761,37.2710075 L46.4737761,28.2063984 C40.3771797,24.6665533 34.2810182,21.1273641 28.1852913,17.5879562 C28.1852913,11.5584369 28.1846392,5.52848032 28.1831175,-0.501257627 C35.7728865,3.91387551 43.3704811,8.31676686 50.9645977,12.7259977 L50.9645977,21.7488536 L46.4737761,19.1415707 L46.4737761,14.6088289 C41.9609992,11.988867 37.4486571,9.36934229 32.936315,6.74938038 L32.936315,15.8142081 C38.9455252,19.3033372 44.954518,22.7918105 50.9645977,26.2813768 L50.9182961,44.3839254 C43.3407003,39.9847503 35.7626697,35.5849194 28.1852913,31.1850885" id="Fill-7" fill="#00A8AD"></path>
            </g>
        </g>
    </g>
</svg>