<?xml version="1.0" encoding="UTF-8"?>
<svg width="809px" height="473px" viewBox="0 0 809 473" version="1.1" xmlns="http://www.w3.org/2000/svg" xmlns:xlink="http://www.w3.org/1999/xlink">
    <title>Logo Philigrane</title>
    <defs>
        <rect id="path-1" x="0" y="0" width="809" height="472"></rect>
    </defs>
    <g id="UI-Design" stroke="none" stroke-width="1" fill="none" fill-rule="evenodd" opacity="0.0357375372">
        <g id="WAW-MyCollection-List" transform="translate(-794.000000, -717.000000)">
            <g id="Logo-Philigrane" style="mix-blend-mode: lighten;" transform="translate(794.000000, 717.579430)">
                <mask id="mask-2" fill="white">
                    <use xlink:href="#path-1"></use>
                </mask>
                <g id="Rectangle"></g>
                <path d="M372.932367,95.6390039 L394.170095,83.3358018 C404.515209,77.342787 417.759879,80.8708598 423.752893,91.2159731 C425.663098,94.5133583 426.66903,98.2565609 426.66903,102.067286 L426.66903,522.250303 L426.66903,522.250303 L755.257996,713.64832 C646.094336,777.240068 536.930677,840.831816 427.76405,904.42057 C318.137455,840.562347 208.567244,776.605318 99,712.636314 L99,268.149423 C99,260.113215 103.271184,252.682604 110.215362,248.637974 L132.542023,235.633831 C143.19022,229.431799 156.850029,233.036127 163.052062,243.684324 C165.037831,247.093668 166.084045,250.968605 166.084045,254.914097 L166.084045,673.835736 L166.084045,673.835736 C254.074358,725.094775 342.067639,776.344831 430.057953,827.606864 L496.147874,789.105697 C408.157561,737.852647 320.134605,686.641514 232.173967,635.331575 L232.173967,190.576585 C232.173967,182.541249 236.444232,175.111308 243.387218,171.066366 L264.417694,158.814138 C274.652455,152.851428 287.783099,156.314609 293.745809,166.54937 C295.655348,169.82702 296.661421,173.552484 296.661421,177.345811 L296.661421,597.713669 L296.661421,597.713669 C384.660637,649.005642 472.680625,700.243722 560.691712,751.514738 L625.77564,713.600415 C537.734878,662.317423 449.705987,611.028443 361.671161,559.757428 L361.671161,115.177083 C361.671161,107.12194 365.962328,99.6768091 372.932367,95.6390039 Z" id="Fill-1" fill="#F8FAFB" mask="url(#mask-2)"></path>
                <path d="M513.364263,374.79199 L561.612368,402.724014 L561.612368,402.724014 L561.612368,464.751033 C623.531611,500.597175 685.450855,536.455284 747.376064,572.304418 L747.376064,448.262346 C663.717373,399.82234 580.064648,351.391308 496.417889,302.957285 C496.417889,254.685045 496.410231,185.229155 496.394916,94.5896148 L496.394916,94.5896148 C496.394947,82.1191427 506.504288,72.009853 518.97476,72.0098843 C522.948251,72.0098943 526.85138,73.0584528 530.289945,75.049659 C652.395046,145.749972 745.298455,199.541717 809,236.425193 L809,359.895905 L747.376064,324.217282 L747.376064,262.190263 C685.450855,226.338137 623.531611,190.491994 561.612368,154.639869 L561.612368,278.684933 C644.071929,326.43093 726.528507,374.167953 809,421.919933 L808.414714,650.115968 C808.398911,656.351184 803.331458,661.393013 797.096242,661.377209 C795.120187,661.372201 793.180056,660.848628 791.470342,659.85782 C661.242813,584.459785 562.891995,527.514973 496.417889,489.023385 L496.417889,384.562656 C496.417889,378.32742 501.472546,373.272762 507.707782,373.272762 C509.694091,373.272762 511.645243,373.796806 513.364263,374.79199 Z" id="Fill-7" fill="#07F8FF" mask="url(#mask-2)"></path>
            </g>
        </g>
    </g>
</svg>