<?xml version="1.0" encoding="utf-8"?>
<!-- Generator: Adobe Illustrator 25.2.0, SVG Export Plug-In . SVG Version: 6.00 Build 0)  -->
<svg version="1.1" id="Layer_1" xmlns="http://www.w3.org/2000/svg" xmlns:xlink="http://www.w3.org/1999/xlink" x="0px" y="0px"
	 viewBox="0 0 341.3 122" style="enable-background:new 0 0 341.3 122;" xml:space="preserve">
<style type="text/css">
	.st0{enable-background:new    ;}
	.st1{fill:#FFFFFF;}
	.st2{fill:#07F8FF;}
	.st3{fill:none;stroke:#979797;stroke-width:0.5;}
	.st4{fill-rule:evenodd;clip-rule:evenodd;fill:url(#Path-5_2_);}
	.st5{fill-rule:evenodd;clip-rule:evenodd;fill:url(#Path-2_2_);}
	.st6{fill-rule:evenodd;clip-rule:evenodd;fill:#048D91;}
	.st7{fill-rule:evenodd;clip-rule:evenodd;fill:#F8FAFB;}
	.st8{fill-rule:evenodd;clip-rule:evenodd;fill:#07F8FF;}
</style>
<g id="Symbols">
	<g id="TopNav" transform="translate(7.000000, 12.000000)">
		<g id="WawStreet-Logo-v1" transform="translate(11.678432, 4.518634)">
			<g class="st0">
				<path class="st1" d="M87.4,70c-0.7-0.4-1.2-0.9-1.6-1.5c-0.4-0.7-0.6-1.4-0.6-2.2c0-0.8,0.2-1.5,0.6-2.2
					c0.4-0.7,0.9-1.2,1.6-1.5c0.7-0.4,1.4-0.6,2.3-0.6c0.7,0,1.3,0.1,1.8,0.3s1,0.5,1.4,1l-0.8,0.8c-0.6-0.7-1.4-1-2.4-1
					c-0.6,0-1.2,0.1-1.7,0.4c-0.5,0.3-0.9,0.7-1.2,1.2c-0.3,0.5-0.4,1-0.4,1.6s0.1,1.2,0.4,1.7s0.7,0.9,1.2,1.2
					c0.5,0.3,1.1,0.4,1.7,0.4c0.9,0,1.7-0.3,2.4-1l0.8,0.8c-0.4,0.4-0.9,0.8-1.4,1s-1.1,0.3-1.8,0.3C88.8,70.6,88,70.4,87.4,70z"/>
				<path class="st1" d="M96.6,70c-0.7-0.4-1.2-0.9-1.6-1.5c-0.4-0.7-0.6-1.4-0.6-2.2c0-0.8,0.2-1.5,0.6-2.2
					c0.4-0.7,0.9-1.2,1.6-1.5c0.7-0.4,1.4-0.6,2.3-0.6c0.8,0,1.6,0.2,2.3,0.6c0.7,0.4,1.2,0.9,1.6,1.5c0.4,0.7,0.6,1.4,0.6,2.2
					c0,0.8-0.2,1.5-0.6,2.2s-0.9,1.2-1.6,1.5c-0.7,0.4-1.4,0.6-2.3,0.6C98,70.6,97.3,70.4,96.6,70z M100.5,69.1
					c0.5-0.3,0.9-0.7,1.2-1.2s0.4-1,0.4-1.7c0-0.6-0.1-1.2-0.4-1.6c-0.3-0.5-0.7-0.9-1.2-1.2s-1-0.4-1.7-0.4c-0.6,0-1.2,0.1-1.7,0.4
					s-0.9,0.7-1.2,1.2c-0.3,0.5-0.4,1-0.4,1.6s0.1,1.2,0.4,1.7s0.7,0.9,1.2,1.2c0.5,0.3,1.1,0.4,1.7,0.4
					C99.5,69.5,100,69.4,100.5,69.1z"/>
				<path class="st1" d="M105.8,62.1h1.2v7.4h4.5v1h-5.7V62.1z"/>
				<path class="st1" d="M113.7,62.1h1.2v7.4h4.5v1h-5.7V62.1z"/>
				<path class="st1" d="M127.6,69.4v1h-6.1V62h5.9v1h-4.7v2.6h4.2v1h-4.2v2.7h4.9V69.4z"/>
				<path class="st1" d="M131.7,70c-0.7-0.4-1.2-0.9-1.6-1.5c-0.4-0.7-0.6-1.4-0.6-2.2c0-0.8,0.2-1.5,0.6-2.2
					c0.4-0.7,0.9-1.2,1.6-1.5c0.7-0.4,1.4-0.6,2.3-0.6c0.7,0,1.3,0.1,1.8,0.3s1,0.5,1.4,1l-0.8,0.8c-0.6-0.7-1.4-1-2.4-1
					c-0.6,0-1.2,0.1-1.7,0.4c-0.5,0.3-0.9,0.7-1.2,1.2s-0.4,1-0.4,1.6s0.1,1.2,0.4,1.7c0.3,0.5,0.7,0.9,1.2,1.2
					c0.5,0.3,1.1,0.4,1.7,0.4c0.9,0,1.7-0.3,2.4-1l0.8,0.8c-0.4,0.4-0.9,0.8-1.4,1s-1.1,0.3-1.8,0.3C133.1,70.6,132.4,70.4,131.7,70
					z"/>
				<path class="st1" d="M141.1,63.1h-2.8v-1h6.9v1h-2.9v7.4h-1.2V63.1z"/>
				<path class="st1" d="M147.2,62.1h1.2v8.4h-1.2V62.1z"/>
				<path class="st1" d="M153.1,70c-0.7-0.4-1.2-0.9-1.6-1.5c-0.4-0.7-0.6-1.4-0.6-2.2c0-0.8,0.2-1.5,0.6-2.2
					c0.4-0.7,0.9-1.2,1.6-1.5c0.7-0.4,1.4-0.6,2.3-0.6c0.8,0,1.6,0.2,2.3,0.6c0.7,0.4,1.2,0.9,1.6,1.5c0.4,0.7,0.6,1.4,0.6,2.2
					c0,0.8-0.2,1.5-0.6,2.2c-0.4,0.7-0.9,1.2-1.6,1.5c-0.7,0.4-1.4,0.6-2.3,0.6C154.6,70.6,153.8,70.4,153.1,70z M157.1,69.1
					c0.5-0.3,0.9-0.7,1.2-1.2s0.4-1,0.4-1.7c0-0.6-0.1-1.2-0.4-1.6c-0.3-0.5-0.7-0.9-1.2-1.2s-1-0.4-1.7-0.4c-0.6,0-1.2,0.1-1.7,0.4
					s-0.9,0.7-1.2,1.2s-0.4,1-0.4,1.6s0.1,1.2,0.4,1.7c0.3,0.5,0.7,0.9,1.2,1.2c0.5,0.3,1.1,0.4,1.7,0.4S156.6,69.4,157.1,69.1z"/>
				<path class="st1" d="M169.6,62.1v8.4h-1l-5-6.3v6.3h-1.2v-8.4h1l5,6.3v-6.3C168.4,62.1,169.6,62.1,169.6,62.1z"/>
				<path class="st1" d="M180.1,62.1v8.4h-1l-5-6.3v6.3h-1.2v-8.4h1l5,6.3v-6.3C178.9,62.1,180.1,62.1,180.1,62.1z"/>
				<path class="st1" d="M189.4,69.4v1h-6.1V62h5.9v1h-4.7v2.6h4.2v1h-4.2v2.7h4.9V69.4z"/>
				<path class="st1" d="M198.3,69.4v1h-7v-0.8l5.3-6.5h-5.2v-1h6.8v0.8l-5.3,6.5C192.9,69.4,198.3,69.4,198.3,69.4z"/>
				<path class="st1" d="M210.4,62.9c0.6,0.5,0.9,1.2,0.9,2.1s-0.3,1.6-0.9,2.1c-0.6,0.5-1.5,0.8-2.6,0.8h-2.1v2.5h-1.2V62h3.3
					C208.9,62.1,209.7,62.3,210.4,62.9z M209.5,66.4c0.4-0.3,0.6-0.8,0.6-1.4s-0.2-1.1-0.6-1.4c-0.4-0.3-1-0.5-1.7-0.5h-2v3.8h2
					C208.5,66.9,209.1,66.7,209.5,66.4z"/>
				<path class="st1" d="M218.7,68.4h-4.5l-0.9,2.1h-1.2l3.8-8.4h1.2l3.8,8.4h-1.3L218.7,68.4z M218.3,67.4l-1.8-4.1l-1.8,4.1H218.3
					z"/>
				<path class="st1" d="M223.4,70.3c-0.6-0.2-1-0.5-1.4-0.8l0.4-0.9c0.3,0.3,0.7,0.5,1.2,0.7s1,0.3,1.5,0.3c0.7,0,1.2-0.1,1.6-0.4
					c0.3-0.2,0.5-0.5,0.5-0.9c0-0.3-0.1-0.5-0.3-0.7s-0.4-0.3-0.7-0.4s-0.7-0.2-1.2-0.3c-0.6-0.2-1.1-0.3-1.5-0.5s-0.7-0.4-1-0.7
					c-0.3-0.3-0.4-0.7-0.4-1.3c0-0.4,0.1-0.9,0.4-1.2c0.2-0.4,0.6-0.6,1.1-0.9s1.1-0.3,1.8-0.3c0.5,0,1,0.1,1.5,0.2s0.9,0.3,1.2,0.6
					l-0.4,1c-0.4-0.2-0.7-0.4-1.1-0.5s-0.8-0.2-1.2-0.2c-0.7,0-1.2,0.1-1.5,0.4c-0.3,0.2-0.5,0.6-0.5,1c0,0.3,0.1,0.5,0.3,0.7
					s0.4,0.3,0.7,0.4s0.7,0.2,1.2,0.3c0.6,0.2,1.1,0.3,1.5,0.5s0.7,0.4,1,0.7c0.3,0.3,0.4,0.7,0.4,1.3c0,0.4-0.1,0.8-0.4,1.2
					s-0.6,0.7-1.1,0.9s-1.1,0.3-1.8,0.3C224.6,70.6,224,70.5,223.4,70.3z"/>
				<path class="st1" d="M231.6,70.3c-0.6-0.2-1-0.5-1.4-0.8l0.4-0.9c0.3,0.3,0.7,0.5,1.2,0.7s1,0.3,1.5,0.3c0.7,0,1.2-0.1,1.6-0.4
					c0.3-0.2,0.5-0.5,0.5-0.9c0-0.3-0.1-0.5-0.3-0.7s-0.4-0.3-0.7-0.4s-0.7-0.2-1.2-0.3c-0.6-0.2-1.1-0.3-1.5-0.5s-0.7-0.4-1-0.7
					c-0.3-0.3-0.4-0.7-0.4-1.3c0-0.4,0.1-0.9,0.4-1.2c0.2-0.4,0.6-0.6,1.1-0.9s1.1-0.3,1.8-0.3c0.5,0,1,0.1,1.5,0.2s0.9,0.3,1.2,0.6
					l-0.4,1c-0.4-0.2-0.7-0.4-1.1-0.5s-0.8-0.2-1.2-0.2c-0.7,0-1.2,0.1-1.5,0.4s-0.5,0.6-0.5,1c0,0.3,0.1,0.5,0.3,0.7
					s0.4,0.3,0.7,0.4s0.7,0.2,1.2,0.3c0.6,0.2,1.1,0.3,1.5,0.5s0.7,0.4,1,0.7c0.3,0.3,0.4,0.7,0.4,1.3c0,0.4-0.1,0.8-0.4,1.2
					c-0.2,0.4-0.6,0.7-1.1,0.9c-0.5,0.2-1.1,0.3-1.8,0.3C232.8,70.6,232.2,70.5,231.6,70.3z"/>
				<path class="st1" d="M239.1,62.1h1.2v8.4h-1.2V62.1z"/>
				<path class="st1" d="M245,70c-0.7-0.4-1.2-0.9-1.6-1.5c-0.4-0.7-0.6-1.4-0.6-2.2c0-0.8,0.2-1.5,0.6-2.2c0.4-0.7,0.9-1.2,1.6-1.5
					c0.7-0.4,1.4-0.6,2.3-0.6c0.8,0,1.6,0.2,2.3,0.6c0.7,0.4,1.2,0.9,1.6,1.5c0.4,0.7,0.6,1.4,0.6,2.2c0,0.8-0.2,1.5-0.6,2.2
					s-0.9,1.2-1.6,1.5s-1.4,0.6-2.3,0.6C246.5,70.6,245.7,70.4,245,70z M249,69.1c0.5-0.3,0.9-0.7,1.2-1.2c0.3-0.5,0.4-1,0.4-1.7
					c0-0.6-0.1-1.2-0.4-1.6c-0.3-0.5-0.7-0.9-1.2-1.2s-1-0.4-1.7-0.4c-0.6,0-1.2,0.1-1.7,0.4s-0.9,0.7-1.2,1.2
					c-0.3,0.5-0.4,1-0.4,1.6s0.1,1.2,0.4,1.7s0.7,0.9,1.2,1.2c0.5,0.3,1.1,0.4,1.7,0.4S248.5,69.4,249,69.1z"/>
				<path class="st1" d="M261.5,62.1v8.4h-1l-5-6.3v6.3h-1.2v-8.4h1l5,6.3v-6.3C260.3,62.1,261.5,62.1,261.5,62.1z"/>
				<path class="st1" d="M272,62.1v8.4h-1l-5-6.3v6.3h-1.2v-8.4h1l5,6.3v-6.3C270.8,62.1,272,62.1,272,62.1z"/>
				<path class="st1" d="M281.3,69.4v1h-6.1V62h5.9v1h-4.7v2.6h4.2v1h-4.2v2.7h4.9V69.4z M278.9,59.8h1.5l-2,1.6h-1.1L278.9,59.8z"
					/>
				<path class="st1" d="M291.7,70.5v-6.1l-3,5.1h-0.6l-3-5.1v6.1h-1.2v-8.4h1l3.5,5.9l3.5-5.9h1v8.4H291.7z"/>
				<path class="st1" d="M302.2,69.4v1h-6.1V62h5.9v1h-4.7v2.6h4.2v1h-4.2v2.7h4.9V69.4z"/>
				<path class="st1" d="M312,62.1v8.4h-1l-5-6.3v6.3h-1.2v-8.4h1l5,6.3v-6.3C310.8,62.1,312,62.1,312,62.1z"/>
				<path class="st1" d="M316.9,63.1H314v-1h6.9v1H318v7.4h-1.2v-7.4H316.9z"/>
			</g>
			<g class="st0">
				<path class="st1" d="M128.2,17.5v17.1c0,4-1.1,7.1-3.3,9.2c-2.2,2.1-5.3,3.2-9.3,3.2c-2,0-3.8-0.3-5.3-0.9
					c-1.6-0.6-2.8-1.4-3.8-2.4c-1,1.1-2.3,1.9-3.9,2.4c-1.5,0.6-3.3,0.9-5.3,0.9c-4,0-7.1-1.1-9.3-3.2c-2.2-2.1-3.3-5.2-3.3-9.2
					V17.5h6.7v16.9c0,2.4,0.5,4.1,1.5,5.2c1,1.1,2.4,1.7,4.3,1.7c3.9,0,5.8-2.3,5.8-6.9V17.5h6.7v16.9c0,4.6,2,6.9,5.9,6.9
					c3.8,0,5.7-2.3,5.7-6.9V17.5H128.2z"/>
				<path class="st1" d="M156.8,24.2v22.3h-6.2v-2.6c-1.6,1.9-3.9,2.9-7,2.9c-2.1,0-4-0.5-5.7-1.4s-3-2.3-4-4s-1.5-3.8-1.5-6.1
					s0.5-4.3,1.5-6.1c1-1.7,2.3-3.1,4-4s3.6-1.4,5.7-1.4c2.8,0,5.1,0.9,6.7,2.7v-2.4L156.8,24.2L156.8,24.2z M148.8,39.8
					c1.1-1.1,1.6-2.6,1.6-4.5s-0.5-3.4-1.6-4.5s-2.4-1.7-4.1-1.7c-1.7,0-3,0.6-4.1,1.7s-1.6,2.6-1.6,4.5s0.5,3.4,1.6,4.5
					s2.4,1.7,4.1,1.7S147.7,40.9,148.8,39.8z"/>
				<path class="st1" d="M197.7,24.2v12.3c0,3.3-0.9,5.8-2.7,7.6s-4.4,2.7-7.7,2.7c-1.6,0-3-0.2-4.2-0.7s-2.3-1.3-3.1-2.4
					c-0.8,1.1-1.9,1.9-3.1,2.4c-1.2,0.5-2.7,0.7-4.3,0.7c-3.3,0-5.9-0.9-7.7-2.7s-2.7-4.3-2.7-7.6V24.2h6.5V36c0,1.9,0.3,3.2,1,4.1
					c0.6,0.9,1.6,1.3,3,1.3s2.4-0.4,3.1-1.3c0.7-0.9,1-2.2,1-4.1V24.2h6.5V36c0,1.8,0.3,3.2,1,4.1c0.7,0.9,1.7,1.3,3.1,1.3
					c1.4,0,2.3-0.4,3-1.3c0.6-0.9,1-2.2,1-4.1V24.2H197.7z"/>
			</g>
			<g class="st0">
				<path class="st2" d="M206.7,45.7c-2-0.7-3.5-1.6-4.6-2.7l1.2-2.4c1.1,1.1,2.4,1.9,4.2,2.6c1.7,0.6,3.5,1,5.4,1
					c2.6,0,4.5-0.5,5.8-1.4c1.3-1,1.9-2.2,1.9-3.7c0-1.2-0.4-2.1-1.1-2.8s-1.6-1.2-2.6-1.6c-1-0.4-2.4-0.8-4.3-1.2
					c-2.2-0.6-3.9-1.1-5.2-1.6c-1.3-0.5-2.4-1.3-3.3-2.3c-0.9-1.1-1.4-2.5-1.4-4.3c0-1.5,0.4-2.8,1.2-4s2-2.2,3.6-2.9
					c1.6-0.7,3.6-1.1,6-1.1c1.7,0,3.3,0.2,4.9,0.7s3,1.1,4.1,1.9l-1,2.4c-1.2-0.8-2.5-1.4-3.9-1.8s-2.7-0.6-4.1-0.6
					c-2.5,0-4.5,0.5-5.7,1.5c-1.3,1-1.9,2.2-1.9,3.8c0,1.2,0.4,2.1,1.1,2.8s1.6,1.2,2.7,1.6c1.1,0.4,2.5,0.8,4.3,1.2
					c2.1,0.5,3.8,1,5.2,1.6s2.4,1.3,3.3,2.3c0.9,1,1.4,2.4,1.4,4.2c0,1.5-0.4,2.8-1.2,4s-2,2.2-3.6,2.9s-3.6,1.1-6,1.1
					C210.8,46.7,208.7,46.4,206.7,45.7z"/>
				<path class="st2" d="M240.3,45.2c-0.6,0.5-1.2,0.9-2,1.1s-1.6,0.4-2.5,0.4c-2,0-3.6-0.6-4.7-1.7c-1.1-1.1-1.7-2.7-1.7-4.7V19.9
					h2.9v4.8h6.6v2.5h-6.6v13c0,1.3,0.3,2.3,1,3c0.6,0.7,1.6,1,2.8,1c1.3,0,2.4-0.4,3.2-1.1L240.3,45.2z"/>
				<path class="st2" d="M251.2,25.6c1.4-0.7,3.1-1.1,5.1-1.1v2.9h-0.7c-2.3,0-4.1,0.7-5.4,2.1s-1.9,3.4-1.9,5.9v11.1h-3V24.7h2.8
					V29C248.8,27.5,249.9,26.4,251.2,25.6z"/>
				<path class="st2" d="M274.2,43.4c1.1-0.5,2.1-1.2,2.9-2.1l1.7,1.9c-1,1.2-2.2,2-3.6,2.7c-1.4,0.6-3,0.9-4.8,0.9
					c-2.2,0-4.2-0.5-6-1.4c-1.7-1-3.1-2.3-4.1-4s-1.5-3.6-1.5-5.7s0.5-4,1.4-5.7s2.2-3,3.8-3.9c1.6-0.9,3.5-1.4,5.6-1.4
					c1.9,0,3.7,0.4,5.2,1.3c1.6,0.9,2.8,2.1,3.7,3.7c0.9,1.6,1.4,3.4,1.5,5.4l-17.9,3.5c0.6,1.8,1.6,3.2,3,4.2
					c1.5,1,3.2,1.5,5.2,1.5C271.8,44.1,273.1,43.8,274.2,43.4z M265.6,28.1c-1.2,0.7-2.1,1.7-2.8,2.9c-0.7,1.3-1,2.7-1,4.3
					c0,0.4,0,0.7,0,0.9l15.4-3c-0.3-1.8-1.2-3.3-2.5-4.5c-1.4-1.2-3-1.8-5-1.8C268.2,27,266.8,27.4,265.6,28.1z"/>
				<path class="st2" d="M299,43.4c1.1-0.5,2.1-1.2,2.9-2.1l1.7,1.9c-1,1.2-2.2,2-3.6,2.7c-1.4,0.6-3,0.9-4.8,0.9
					c-2.2,0-4.2-0.5-6-1.4c-1.7-1-3.1-2.3-4.1-4s-1.5-3.6-1.5-5.7s0.5-4,1.4-5.7s2.2-3,3.8-3.9c1.6-0.9,3.5-1.4,5.6-1.4
					c1.9,0,3.7,0.4,5.2,1.3c1.6,0.9,2.8,2.1,3.7,3.7c0.9,1.6,1.4,3.4,1.5,5.4l-17.9,3.5c0.6,1.8,1.6,3.2,3,4.2
					c1.5,1,3.2,1.5,5.2,1.5C296.6,44.1,297.8,43.8,299,43.4z M290.4,28.1c-1.2,0.7-2.1,1.7-2.8,2.9c-0.7,1.3-1,2.7-1,4.3
					c0,0.4,0,0.7,0,0.9l15.4-3c-0.3-1.8-1.2-3.3-2.5-4.5c-1.4-1.2-3-1.8-5-1.8C292.9,27,291.6,27.4,290.4,28.1z"/>
				<path class="st2" d="M321.4,45.2c-0.6,0.5-1.2,0.9-2,1.1s-1.6,0.4-2.5,0.4c-2,0-3.6-0.6-4.7-1.7c-1.1-1.1-1.7-2.7-1.7-4.7V19.9
					h2.9v4.8h6.6v2.5h-6.6v13c0,1.3,0.3,2.3,1,3c0.6,0.7,1.6,1,2.8,1c1.3,0,2.4-0.4,3.2-1.1L321.4,45.2z"/>
			</g>
			<g id="Logo-White">
				<g id="cube_1_" transform="translate(-0.000000, 4.217391)">
					<g id="Group-4_1_" transform="translate(36.800975, 41.861198) scale(1, -1) translate(-36.800975, -41.861198) ">
						<line id="Path-3_1_" class="st3" x1="-18.7" y1="20.8" x2="19.6" y2="43.1"/>
						<g id="Group_1_">
							
								<linearGradient id="Path-5_2_" gradientUnits="userSpaceOnUse" x1="-302.1219" y1="-721.927" x2="-302.156" y2="-722.2668" gradientTransform="matrix(73.602 0 0 43.0547 22256.123 31111.252)">
								<stop  offset="0" style="stop-color:#024749"/>
								<stop  offset="1" style="stop-color:#001D1E"/>
							</linearGradient>
							<polygon id="Path-5_1_" class="st4" points="-18.7,20.8 19.6,43.1 54.9,22.7 16.6,0 							"/>
							
								<linearGradient id="Path-2_2_" gradientUnits="userSpaceOnUse" x1="-298.7907" y1="-696.3511" x2="-299.1761" y2="-695.6686" gradientTransform="matrix(38.3166 0 0 -62.8873 11457.5537 -43714.8125)">
								<stop  offset="0" style="stop-color:#047678"/>
								<stop  offset="1" style="stop-color:#054D4F"/>
							</linearGradient>
							<polygon id="Path-2_1_" class="st5" points="19.6,43.1 -18.7,20.8 -18.7,61.5 19.6,83.7 							"/>
							<polygon id="Path-4_1_" class="st6" points="19.6,83.7 54.9,63.4 54.9,22.7 19.6,43.1 							"/>
						</g>
					</g>
				</g>
				<g id="Fill-1_1_">
					<g>
					</g>
					<g>
						<path id="path-4_2_" class="st7" d="M11.2,4l2.1-1.2c1-0.6,2.4-0.2,3,0.8c0.2,0.3,0.3,0.7,0.3,1.1v42l0,0l32.9,19.2
							c-11,6.3-21.9,12.7-32.8,19.1c-11-6.4-21.9-12.8-32.9-19.2V21.3c0-0.8,0.4-1.5,1.1-2l2.2-1.3c1.1-0.6,2.4-0.3,3.1,0.8
							c0.2,0.3,0.3,0.7,0.3,1.1v41.9l0,0C-0.7,67,8.1,72.1,16.9,77.3l6.6-3.9C14.7,68.3,5.9,63.2-2.9,58V13.5c0-0.8,0.4-1.5,1.1-2
							l2.1-1.2c1-0.6,2.3-0.3,2.9,0.8c0.2,0.3,0.3,0.7,0.3,1.1v42.1l0,0c8.8,5.1,17.6,10.3,26.4,15.4l6.5-3.8
							C27.6,60.8,18.8,55.6,10,50.5V6C10.1,5.2,10.5,4.4,11.2,4z"/>
					</g>
				</g>
				<g id="Fill-7_1_">
					<g>
					</g>
					<g>
						<path id="path-6_2_" class="st8" d="M25.2,32l4.8,2.8l0,0V41c6.2,3.6,12.4,7.2,18.6,10.8V39.3c-8.4-4.8-16.8-9.7-25.2-14.5
							c0-4.8,0-11.8,0-20.9l0,0c0-1.2,1-2.3,2.3-2.3c0.4,0,0.8,0.1,1.1,0.3C39.2,9,48.5,14.4,54.9,18.1v12.4l-6.2-3.6v-6.2
							c-6.2-3.6-12.4-7.2-18.6-10.8v12.4c8.3,4.8,16.5,9.6,24.8,14.3l-0.1,22.8c0,0.6-0.5,1.1-1.1,1.1c-0.2,0-0.4-0.1-0.6-0.2
							C40,52.8,30.2,47.1,23.5,43.2V32.9c0-0.6,0.5-1.1,1.1-1.1C24.9,31.8,25.1,31.9,25.2,32z"/>
					</g>
				</g>
			</g>
		</g>
	</g>
</g>
</svg>
