<?xml version="1.0" encoding="utf-8"?>
<!-- Generator: Adobe Illustrator 25.2.0, SVG Export Plug-In . SVG Version: 6.00 Build 0)  -->
<svg version="1.1" id="Layer_1" xmlns="http://www.w3.org/2000/svg" xmlns:xlink="http://www.w3.org/1999/xlink" x="0px" y="0px"
	 viewBox="0 0 34 40" style="enable-background:new 0 0 34 40;" xml:space="preserve">
<style type="text/css">
	.st0{fill:#FFFFFF;}
</style>
<path class="st0" d="M15.4,0.9c0.1,0.2,0.1,0.3,0.1,0.5v20l15.6,9.1l-15.5,9.1c-5.2-3-10.4-6.1-15.6-9.1V9.3c0-0.4,0.2-0.7,0.5-0.9
	l1.1-0.6C2.1,7.5,2.7,7.7,3,8.2c0.1,0.2,0.1,0.3,0.1,0.5v19.9c4.2,2.4,8.3,4.9,12.5,7.3l3.1-1.8c-4.2-2.4-8.3-4.9-12.5-7.3V5.6
	c0-0.4,0.2-0.7,0.5-0.9l1-0.6C8.3,3.8,9,4,9.2,4.5C9.3,4.6,9.4,4.8,9.4,5v20c4.2,2.4,8.3,4.9,12.5,7.3l3.1-1.8l-12.5-7.3V2
	c0-0.4,0.2-0.7,0.5-0.9l1-0.6C14.5,0.2,15.1,0.4,15.4,0.9z M19.9,0c0.2,0,0.4,0.1,0.5,0.1c5.8,3.4,10.2,5.9,13.2,7.7v5.9L30.8,12V9
	c-2.9-1.7-5.9-3.4-8.8-5.1v5.9c3.9,2.3,7.8,4.5,11.7,6.8l0,10.9c0,0.3-0.2,0.5-0.5,0.5c-0.1,0-0.2,0-0.3-0.1
	c-6.2-3.6-10.8-6.3-14-8.1v-5c0-0.3,0.2-0.5,0.5-0.5c0.1,0,0.2,0,0.3,0.1l2.3,1.3v3l8.8,5.1v-5.9L18.8,11l0-5.2l0-3.9V1.1
	C18.8,0.5,19.3,0,19.9,0z"/>
</svg>
