<?xml version="1.0" encoding="utf-8"?>
<!-- Generator: Adobe Illustrator 25.2.0, SVG Export Plug-In . SVG Version: 6.00 Build 0)  -->
<svg version="1.1" id="Layer_1" xmlns="http://www.w3.org/2000/svg" xmlns:xlink="http://www.w3.org/1999/xlink" x="0px" y="0px"
	 viewBox="0 0 117 129" style="enable-background:new 0 0 117 129;" xml:space="preserve">
<style type="text/css">
	.st0{fill:none;stroke:#979797;stroke-width:0.5;}
	.st1{fill-rule:evenodd;clip-rule:evenodd;fill:url(#Path-5_1_);}
	.st2{fill-rule:evenodd;clip-rule:evenodd;fill:url(#Path-2_1_);}
	.st3{fill-rule:evenodd;clip-rule:evenodd;fill:#048D91;}
	.st4{fill-rule:evenodd;clip-rule:evenodd;}
	.st5{fill-rule:evenodd;clip-rule:evenodd;fill:#F8FAFB;}
	.st6{fill-rule:evenodd;clip-rule:evenodd;fill:#07F8FF;}
</style>
<g>
	<line id="Path-3_2_" class="st0" x1="15.6" y1="90.7" x2="60.3" y2="64.8"/>
	
		<linearGradient id="Path-5_1_" gradientUnits="userSpaceOnUse" x1="-243.6023" y1="466.9334" x2="-243.6365" y2="467.2732" gradientTransform="matrix(85.7425 0 0 50.1565 20946.9961 -23338.4355)">
		<stop  offset="0" style="stop-color:#024749"/>
		<stop  offset="1" style="stop-color:#001D1E"/>
	</linearGradient>
	<polygon id="Path-5_2_" class="st1" points="15.6,90.7 60.3,64.8 101.4,88.5 56.8,115 	"/>
	
		<linearGradient id="Path-2_1_" gradientUnits="userSpaceOnUse" x1="-240.7458" y1="456.3682" x2="-241.1312" y2="455.6858" gradientTransform="matrix(44.6369 0 0 -73.2604 10793.9102 33459.2266)">
		<stop  offset="0" style="stop-color:#047678"/>
		<stop  offset="1" style="stop-color:#054D4F"/>
	</linearGradient>
	<polygon id="Path-2_2_" class="st2" points="60.3,64.8 15.6,90.7 15.6,43.3 60.3,17.4 	"/>
	<polygon id="Path-4_2_" class="st3" points="60.3,17.4 101.4,41.2 101.4,88.5 60.3,64.8 	"/>
	<path id="path-4_5_" class="st4" d="M50.1,17.4l3.5-2c1-0.6,2.2-0.2,2.8,0.7c0.2,0.3,0.3,0.7,0.3,1v49.8l0,0L95,89.3
		c-12.7,7.4-25.5,14.8-38.2,22.2c-12.8-7.4-25.6-14.9-38.3-22.4V37c0-0.7,0.4-1.4,1-1.8l3.8-2.2c1-0.6,2.2-0.2,2.8,0.7
		c0.2,0.3,0.3,0.7,0.3,1v49.8l0,0c10.3,6,20.5,11.9,30.8,17.9l7.7-4.5c-10.3-6-20.5-11.9-30.8-17.9V27.9c0-0.7,0.4-1.4,1-1.8l3.5-2
		c1-0.6,2.2-0.2,2.8,0.7c0.2,0.3,0.3,0.7,0.3,1v49.8l0,0c10.3,6,20.5,12,30.8,17.9l7.6-4.4c-10.3-6-20.5-12-30.8-17.9V19.1
		C49.1,18.4,49.5,17.8,50.1,17.4z"/>
	<path id="path-4_3_" class="st5" d="M50.1,17.4l3.5-2c1-0.6,2.2-0.2,2.8,0.7c0.2,0.3,0.3,0.7,0.3,1v49.8l0,0L95,89.3
		c-12.7,7.4-25.5,14.8-38.2,22.2c-12.8-7.4-25.6-14.9-38.3-22.4V37c0-0.7,0.4-1.4,1-1.8l3.8-2.2c1-0.6,2.2-0.2,2.8,0.7
		c0.2,0.3,0.3,0.7,0.3,1v49.8l0,0c10.3,6,20.5,11.9,30.8,17.9l7.7-4.5c-10.3-6-20.5-11.9-30.8-17.9V27.9c0-0.7,0.4-1.4,1-1.8l3.5-2
		c1-0.6,2.2-0.2,2.8,0.7c0.2,0.3,0.3,0.7,0.3,1v49.8l0,0c10.3,6,20.5,12,30.8,17.9l7.6-4.4c-10.3-6-20.5-12-30.8-17.9V19.1
		C49.1,18.4,49.5,17.8,50.1,17.4z"/>
	<path id="path-6_5_" class="st4" d="M66.4,49.5l6.1,3.5l0,0v7.2c7.2,4.2,14.5,8.4,21.7,12.5V58.3C84.4,52.7,74.6,47,64.8,41.4
		c0-5.8,0-14.3,0-25.3l0,0c0-1.1,0.9-2,2-2c0.4,0,0.7,0.1,1,0.3c14.7,8.5,25.9,14.9,33.5,19.3V48l-7.2-4.2v-7.2
		c-7.2-4.2-14.5-8.4-21.7-12.5v14.5c9.6,5.6,19.3,11.1,28.9,16.7l-0.1,27.1c0,0.6-0.5,1-1,1c-0.2,0-0.4,0-0.5-0.1
		c-15.4-8.9-27.1-15.6-34.9-20.2V50.4c0-0.6,0.5-1,1-1C66,49.4,66.2,49.4,66.4,49.5z"/>
	<path id="path-6_3_" class="st6" d="M66.4,49.5l6.1,3.5l0,0v7.2c7.2,4.2,14.5,8.4,21.7,12.5V58.3C84.4,52.7,74.6,47,64.8,41.4
		c0-5.8,0-14.3,0-25.3l0,0c0-1.1,0.9-2,2-2c0.4,0,0.7,0.1,1,0.3c14.7,8.5,25.9,14.9,33.5,19.3V48l-7.2-4.2v-7.2
		c-7.2-4.2-14.5-8.4-21.7-12.5v14.5c9.6,5.6,19.3,11.1,28.9,16.7l-0.1,27.1c0,0.6-0.5,1-1,1c-0.2,0-0.4,0-0.5-0.1
		c-15.4-8.9-27.1-15.6-34.9-20.2V50.4c0-0.6,0.5-1,1-1C66,49.4,66.2,49.4,66.4,49.5z"/>
</g>
</svg>
