<?xml version="1.0" encoding="UTF-8"?>
<svg width="24px" height="24px" viewBox="0 0 24 24" version="1.1" xmlns="http://www.w3.org/2000/svg" xmlns:xlink="http://www.w3.org/1999/xlink">
    <title>Icons/icon-euro</title>
    <g id="Symbols" stroke="none" stroke-width="1" fill="none" fill-rule="evenodd">
        <g id="Components/Forms/Price" transform="translate(-269.000000, -36.000000)">
            <g id="Icons/icon-euro" transform="translate(269.000000, 36.000000)">
                <polygon id="Path" points="0 0 24 0 24 24 0 24"></polygon>
                <path d="M13.7044335,19 C15.182266,19 16.3251232,18.7704918 17.1527094,18.4453552 L17.1527094,15.557377 C16.1674877,15.9590164 15.2610837,16.226776 13.862069,16.226776 C12.2068966,16.226776 11.2019704,15.6721311 10.7093596,14.3333333 L14.9458128,14.3333333 L15.5172414,12.5928962 L10.4137931,12.5928962 C10.4006568,12.4653916 10.3962781,12.3378871 10.3948185,12.2047156 L10.3940887,12 C10.3940887,11.7896175 10.3940887,11.579235 10.4137931,11.3879781 L15.9704433,11.3879781 L16.5812808,9.64754098 L10.7093596,9.64754098 C11.182266,8.28961749 12.2463054,7.73497268 14.137931,7.73497268 C15.044335,7.73497268 16.1477833,7.98360656 16.9753695,8.46174863 L18,5.86065574 C17.1330049,5.42076503 15.8128079,5 14.0394089,5 C10.6896552,5 8.14778325,6.4726776 7.32019704,9.64754098 L6,9.64754098 L6,11.3879781 L7.06403941,11.3879781 C7.05090312,11.5282332 7.04652436,11.6684882 7.04506477,11.81441 L7.04433498,12.0382514 C7.04433498,12.2295082 7.04433498,12.420765 7.06403941,12.5928962 L6,12.5928962 L6,14.3333333 L7.30049261,14.3333333 C8.08866995,17.6038251 10.6305419,19 13.7044335,19 Z" id="€" fill="#0D616C" fill-rule="nonzero"></path>
            </g>
        </g>
    </g>
</svg>