<?xml version="1.0" encoding="utf-8"?>
<!-- Generator: Adobe Illustrator 25.2.0, SVG Export Plug-In . SVG Version: 6.00 Build 0)  -->
<svg version="1.1" id="Layer_1" xmlns="http://www.w3.org/2000/svg" xmlns:xlink="http://www.w3.org/1999/xlink" x="0px" y="0px"
	 viewBox="0 0 20 20" style="enable-background:new 0 0 20 20;" xml:space="preserve">
<style type="text/css">
	.st0{fill:#00A8AD;}
</style>
<path id="Shape" class="st0" d="M15,2h4c0.6,0,1,0.4,1,1v16c0,0.6-0.4,1-1,1H1c-0.6,0-1-0.4-1-1V3c0-0.6,0.4-1,1-1h4V0h2v2h6V0h2V2z
	 M2,8v10h16V8H2z M4,10h2v2H4V10z M9,10h2v2H9V10z M14,10h2v2h-2V10z"/>
</svg>
