<?xml version="1.0" encoding="utf-8"?>
<!-- Generator: Adobe Illustrator 25.2.0, SVG Export Plug-In . SVG Version: 6.00 Build 0)  -->
<svg version="1.1" id="Layer_1" xmlns="http://www.w3.org/2000/svg" xmlns:xlink="http://www.w3.org/1999/xlink" x="0px" y="0px"
	 viewBox="0 0 138 67" style="enable-background:new 0 0 138 67;" xml:space="preserve">
	<style type="text/css">
		.st0{fill:#00A8AD;}
		.st1{fill:#CCEEEF;}
	</style>
	<path class="st0" d="M138,33.4c0,1.9-1.1,3.6-2.9,4.4L67.7,66.6c-0.6,0.3-1.3,0.4-1.9,0.4c-1.3,0-2.6-0.5-3.5-1.5
		c-1.4-1.5-1.7-3.6-0.8-5.4l11.1-22l36.5-4.5L72.6,29l-11.1-22c-0.9-1.8-0.6-4,0.8-5.4c1.4-1.5,3.5-1.9,5.4-1.1l67.5,28.7
		C137,29.9,138,31.6,138,33.4z"/>
	<path class="st1" d="M53.5,50h-30c-1.4,0-2.5-1.1-2.5-2.5s1.1-2.5,2.5-2.5h30c1.4,0,2.5,1.1,2.5,2.5S54.9,50,53.5,50z"/>
	<path class="st1" d="M53.5,36h-51C1.1,36,0,34.9,0,33.5S1.1,31,2.5,31h51c1.4,0,2.5,1.1,2.5,2.5S54.9,36,53.5,36z"/>
	<path class="st1" d="M53.5,22h-30c-1.4,0-2.5-1.1-2.5-2.5s1.1-2.5,2.5-2.5h30c1.4,0,2.5,1.1,2.5,2.5S54.9,22,53.5,22z"/>
</svg>
